<?xml version="1.0" encoding="UTF-8" standalone="no"?>
<!-- Created with Inkscape (http://www.inkscape.org/) -->

<svg
   xmlns:dc="http://purl.org/dc/elements/1.1/"
   xmlns:cc="http://creativecommons.org/ns#"
   xmlns:rdf="http://www.w3.org/1999/02/22-rdf-syntax-ns#"
   xmlns:svg="http://www.w3.org/2000/svg"
   xmlns="http://www.w3.org/2000/svg"
   xmlns:sodipodi="http://sodipodi.sourceforge.net/DTD/sodipodi-0.dtd"
   xmlns:inkscape="http://www.inkscape.org/namespaces/inkscape"
   width="210mm"
   height="297mm"
   viewBox="0 0 210 297"
   version="1.1"
   id="svg8"
   inkscape:version="0.92.2 (5c3e80d, 2017-08-06)"
   sodipodi:docname="endeavour-logo.svg">
  <defs
     id="defs2" />
  <sodipodi:namedview
     id="base"
     pagecolor="#ffffff"
     bordercolor="#666666"
     borderopacity="1.0"
     inkscape:pageopacity="0.0"
     inkscape:pageshadow="2"
     inkscape:zoom="7.2407734"
     inkscape:cx="365.75775"
     inkscape:cy="627.04759"
     inkscape:document-units="mm"
     inkscape:current-layer="layer1"
     showgrid="false"
     inkscape:window-width="1920"
     inkscape:window-height="1017"
     inkscape:window-x="-8"
     inkscape:window-y="-8"
     inkscape:window-maximized="1" />
  <metadata
     id="metadata5">
    <rdf:RDF>
      <cc:Work
         rdf:about="">
        <dc:format>image/svg+xml</dc:format>
        <dc:type
           rdf:resource="http://purl.org/dc/dcmitype/StillImage" />
        <dc:title></dc:title>
      </cc:Work>
    </rdf:RDF>
  </metadata>
  <g
     inkscape:label="Layer 1"
     inkscape:groupmode="layer"
     id="layer1">
    <rect
       style="opacity:0.98999999;fill:#000000;fill-opacity:0.97209305;stroke:#0400ff;stroke-width:0.5;stroke-linecap:round;stroke-linejoin:round;stroke-miterlimit:4;stroke-dasharray:none;stroke-dashoffset:0;stroke-opacity:1;paint-order:markers stroke fill"
       id="rect815"
       width="381"
       height="256.64584"
       x="-65.690338"
       y="-0.33807099" />
    <g
       id="g1005"
       transform="translate(0.5291653)">
      <path
         d="m 87.967582,133.22501 v 0.18603 h -1.647445 v 0.0124 q 0,0.37827 0.19637,0.58497 0.198438,0.20671 0.558106,0.20671 0.181901,0 0.380338,-0.0579 0.198438,-0.0579 0.423747,-0.1757 v 0.37827 q -0.217041,0.0889 -0.419613,0.1323 -0.200504,0.0455 -0.388606,0.0455 -0.539502,0 -0.84336,-0.32246 -0.303857,-0.32453 -0.303857,-0.89297 0,-0.55397 0.297656,-0.8847 0.297656,-0.33073 0.79375,-0.33073 0.44235,0 0.696598,0.29972 0.256316,0.29973 0.256316,0.81856 z m -0.380339,-0.11162 q -0.0083,-0.33487 -0.159163,-0.5085 -0.148828,-0.1757 -0.429948,-0.1757 -0.274919,0 -0.452686,0.1819 -0.177767,0.1819 -0.21084,0.50437 z"
         style="font-style:normal;font-variant:normal;font-weight:normal;font-stretch:normal;font-size:medium;line-height:1.25;font-family:monospace;-inkscape-font-specification:monospace;letter-spacing:0px;word-spacing:0px;fill:#898989;fill-opacity:0.98431373;stroke:#ffffff;stroke-width:0.1;stroke-miterlimit:4;stroke-dasharray:none;stroke-opacity:1"
         id="path906"
         inkscape:connector-curvature="0" />
      <path
         d="m 90.388105,133.04311 v 1.43454 H 90.0057 v -1.43454 q 0,-0.31213 -0.109554,-0.45889 -0.109554,-0.14676 -0.343132,-0.14676 -0.26665,0 -0.411344,0.19017 -0.142627,0.1881 -0.142627,0.54157 v 1.30845 h -0.380338 v -2.31511 h 0.380338 v 0.34727 q 0.101286,-0.19844 0.274919,-0.29973 0.173632,-0.10335 0.411344,-0.10335 0.353467,0 0.5271,0.23358 0.175699,0.23151 0.175699,0.7028 z"
         style="font-style:normal;font-variant:normal;font-weight:normal;font-stretch:normal;font-size:medium;line-height:1.25;font-family:monospace;-inkscape-font-specification:monospace;letter-spacing:0px;word-spacing:0px;fill:#898989;fill-opacity:0.98431373;stroke:#ffffff;stroke-width:0.1;stroke-miterlimit:4;stroke-dasharray:none;stroke-opacity:1"
         id="path908"
         inkscape:connector-curvature="0" />
      <path
         d="m 92.535778,132.45813 v -1.19683 h 0.380338 v 3.21635 h -0.380338 v -0.29146 q -0.09508,0.17157 -0.254248,0.26252 -0.157097,0.0889 -0.363802,0.0889 -0.419613,0 -0.661459,-0.32453 -0.239778,-0.32659 -0.239778,-0.89917 0,-0.5643 0.241846,-0.8847 0.241845,-0.32246 0.659391,-0.32246 0.208773,0 0.367936,0.0909 0.159163,0.0889 0.250114,0.26045 z m -1.118278,0.86403 q 0,0.44235 0.14056,0.66766 0.14056,0.22531 0.415478,0.22531 0.274919,0 0.417546,-0.22738 0.144694,-0.22737 0.144694,-0.66559 0,-0.44028 -0.144694,-0.66559 -0.142627,-0.22738 -0.417546,-0.22738 -0.274918,0 -0.415478,0.22531 -0.14056,0.22531 -0.14056,0.66766 z"
         style="font-style:normal;font-variant:normal;font-weight:normal;font-stretch:normal;font-size:medium;line-height:1.25;font-family:monospace;-inkscape-font-specification:monospace;letter-spacing:0px;word-spacing:0px;fill:#898989;fill-opacity:0.98431373;stroke:#ffffff;stroke-width:0.1;stroke-miterlimit:4;stroke-dasharray:none;stroke-opacity:1"
         id="path910"
         inkscape:connector-curvature="0" />
      <path
         d="m 95.607425,133.22501 v 0.18603 H 93.95998 v 0.0124 q 0,0.37827 0.19637,0.58497 0.198438,0.20671 0.558106,0.20671 0.181901,0 0.380338,-0.0579 0.198438,-0.0579 0.423747,-0.1757 v 0.37827 q -0.217041,0.0889 -0.419613,0.1323 -0.200504,0.0455 -0.388606,0.0455 -0.539502,0 -0.84336,-0.32246 -0.303857,-0.32453 -0.303857,-0.89297 0,-0.55397 0.297656,-0.8847 0.297656,-0.33073 0.79375,-0.33073 0.44235,0 0.696598,0.29972 0.256316,0.29973 0.256316,0.81856 z m -0.380339,-0.11162 q -0.0083,-0.33487 -0.159163,-0.5085 -0.148828,-0.1757 -0.429948,-0.1757 -0.274919,0 -0.452686,0.1819 -0.177767,0.1819 -0.21084,0.50437 z"
         style="font-style:normal;font-variant:normal;font-weight:normal;font-stretch:normal;font-size:medium;line-height:1.25;font-family:monospace;-inkscape-font-specification:monospace;letter-spacing:0px;word-spacing:0px;fill:#898989;fill-opacity:0.98431373;stroke:#ffffff;stroke-width:0.1;stroke-miterlimit:4;stroke-dasharray:none;stroke-opacity:1"
         id="path912"
         inkscape:connector-curvature="0" />
      <path
         d="m 97.306546,133.31389 h -0.126091 q -0.332796,0 -0.502295,0.11782 -0.167431,0.11576 -0.167431,0.34727 0,0.20877 0.12609,0.32453 0.126091,0.11575 0.349333,0.11575 0.314193,0 0.494027,-0.21704 0.179834,-0.21911 0.181901,-0.60358 v -0.0848 z m 0.737939,-0.15709 v 1.32085 H 97.66208 v -0.34314 q -0.121957,0.20671 -0.307992,0.30593 -0.183968,0.0971 -0.448551,0.0971 -0.353467,0 -0.564307,-0.19844 -0.21084,-0.2005 -0.21084,-0.53536 0,-0.38654 0.258382,-0.58705 0.26045,-0.2005 0.762744,-0.2005 h 0.510564 v -0.06 q -0.0021,-0.27698 -0.14056,-0.40101 -0.138493,-0.12609 -0.442351,-0.12609 -0.194303,0 -0.39274,0.0558 -0.198438,0.0558 -0.38654,0.1633 v -0.38034 q 0.21084,-0.0806 0.403076,-0.11989 0.194303,-0.0413 0.376204,-0.0413 0.287321,0 0.489893,0.0848 0.204639,0.0847 0.330729,0.25425 0.07855,0.10335 0.111621,0.25631 0.03307,0.1509 0.03307,0.45476 z"
         style="font-style:normal;font-variant:normal;font-weight:normal;font-stretch:normal;font-size:medium;line-height:1.25;font-family:monospace;-inkscape-font-specification:monospace;letter-spacing:0px;word-spacing:0px;fill:#898989;fill-opacity:0.98431373;stroke:#ffffff;stroke-width:0.1;stroke-miterlimit:4;stroke-dasharray:none;stroke-opacity:1"
         id="path914"
         inkscape:connector-curvature="0" />
      <path
         d="M 98.608792,132.16254 H 99.0036 l 0.671793,1.94304 0.673857,-1.94304 h 0.39481 l -0.822687,2.31511 h -0.489892 z"
         style="font-style:normal;font-variant:normal;font-weight:normal;font-stretch:normal;font-size:medium;line-height:1.25;font-family:monospace;-inkscape-font-specification:monospace;letter-spacing:0px;word-spacing:0px;fill:#898989;fill-opacity:0.98431373;stroke:#ffffff;stroke-width:0.1;stroke-miterlimit:4;stroke-dasharray:none;stroke-opacity:1"
         id="path916"
         inkscape:connector-curvature="0" />
      <path
         d="m 102.22201,132.42919 q -0.28939,0 -0.43822,0.22531 -0.14883,0.22531 -0.14883,0.66766 0,0.44028 0.14883,0.66766 0.14883,0.22531 0.43822,0.22531 0.29145,0 0.44028,-0.22531 0.14883,-0.22738 0.14883,-0.66766 0,-0.44235 -0.14883,-0.66766 -0.14883,-0.22531 -0.44028,-0.22531 z m 0,-0.32246 q 0.48162,0 0.73587,0.31213 0.25631,0.31212 0.25631,0.9033 0,0.59325 -0.25424,0.90537 -0.25425,0.31006 -0.73794,0.31006 -0.48163,0 -0.73588,-0.31006 -0.25424,-0.31212 -0.25424,-0.90537 0,-0.59118 0.25424,-0.9033 0.25425,-0.31213 0.73588,-0.31213 z"
         style="font-style:normal;font-variant:normal;font-weight:normal;font-stretch:normal;font-size:medium;line-height:1.25;font-family:monospace;-inkscape-font-specification:monospace;letter-spacing:0px;word-spacing:0px;fill:#898989;fill-opacity:0.98431373;stroke:#ffffff;stroke-width:0.1;stroke-miterlimit:4;stroke-dasharray:none;stroke-opacity:1"
         id="path918"
         inkscape:connector-curvature="0" />
      <path
         d="m 103.89839,133.60121 v -1.43453 h 0.38034 v 1.43453 q 0,0.31213 0.10955,0.45889 0.11163,0.14676 0.34314,0.14676 0.26871,0 0.41134,-0.1881 0.14263,-0.19017 0.14263,-0.54364 v -1.30844 h 0.3824 v 2.31097 h -0.3824 v -0.34727 q -0.10129,0.2005 -0.27699,0.30386 -0.17363,0.10335 -0.40721,0.10335 -0.35553,0 -0.52917,-0.23151 -0.17363,-0.23358 -0.17363,-0.70487 z"
         style="font-style:normal;font-variant:normal;font-weight:normal;font-stretch:normal;font-size:medium;line-height:1.25;font-family:monospace;-inkscape-font-specification:monospace;letter-spacing:0px;word-spacing:0px;fill:#898989;fill-opacity:0.98431373;stroke:#ffffff;stroke-width:0.1;stroke-miterlimit:4;stroke-dasharray:none;stroke-opacity:1"
         id="path920"
         inkscape:connector-curvature="0" />
      <path
         d="m 108.42938,132.64003 q -0.12196,-0.0951 -0.24805,-0.13849 -0.12609,-0.0434 -0.27698,-0.0434 -0.35554,0 -0.54364,0.22324 -0.1881,0.22325 -0.1881,0.64493 v 1.15135 h -0.38241 v -2.31511 h 0.38241 v 0.45269 q 0.0951,-0.24598 0.29145,-0.37621 0.19844,-0.13229 0.46923,-0.13229 0.14056,0 0.26251,0.0351 0.12196,0.0351 0.23358,0.10956 z"
         style="font-style:normal;font-variant:normal;font-weight:normal;font-stretch:normal;font-size:medium;line-height:1.25;font-family:monospace;-inkscape-font-specification:monospace;letter-spacing:0px;word-spacing:0px;fill:#898989;fill-opacity:0.98431373;stroke:#ffffff;stroke-width:0.1;stroke-miterlimit:4;stroke-dasharray:none;stroke-opacity:1"
         id="path922"
         inkscape:connector-curvature="0" />
    </g>
    <path
       sodipodi:type="star"
       style="opacity:0.98999999;fill:#33adff;fill-opacity:0.51627903;stroke:#33acfd;stroke-width:0.1;stroke-linecap:round;stroke-linejoin:round;stroke-miterlimit:4;stroke-dasharray:none;stroke-dashoffset:0;stroke-opacity:1;paint-order:markers stroke fill"
       id="path817"
       sodipodi:sides="6"
       sodipodi:cx="93.507309"
       sodipodi:cy="124.74035"
       sodipodi:r1="1.8131142"
       sodipodi:r2="0.10190753"
       sodipodi:arg1="0.50486137"
       sodipodi:arg2="1.0284601"
       inkscape:flatsided="true"
       inkscape:rounded="0"
       inkscape:randomized="0"
       d="m 95.094222,125.61733 -1.552942,0.93581 -1.586913,-0.87697 -0.03397,-1.8128 1.552942,-0.93582 1.586913,0.87698 z"
       inkscape:transform-center-x="1.2211271e-006"
       inkscape:transform-center-y="-1.5623281e-006" />
    <path
       sodipodi:type="star"
       style="opacity:0.98999999;fill:#33adff;fill-opacity:0.51627903;stroke:#33acfd;stroke-width:0.1;stroke-linecap:round;stroke-linejoin:round;stroke-miterlimit:4;stroke-dasharray:none;stroke-dashoffset:0;stroke-opacity:1;paint-order:markers stroke fill"
       id="path817-8"
       sodipodi:sides="6"
       sodipodi:cx="95.555443"
       sodipodi:cy="120.9334"
       sodipodi:r1="1.8131142"
       sodipodi:r2="0.10190753"
       sodipodi:arg1="0.50486137"
       sodipodi:arg2="1.0284601"
       inkscape:flatsided="true"
       inkscape:rounded="0"
       inkscape:randomized="0"
       d="m 97.142356,121.81038 -1.552942,0.93582 -1.586913,-0.87698 -0.03397,-1.8128 1.552942,-0.93581 1.586913,0.87698 z"
       inkscape:transform-center-x="1.2211271e-006"
       inkscape:transform-center-y="-1.5623281e-006" />
    <path
       sodipodi:type="star"
       style="opacity:0.98999999;fill:#33adff;fill-opacity:0.51627903;stroke:#33acfd;stroke-width:0.1;stroke-linecap:round;stroke-linejoin:round;stroke-miterlimit:4;stroke-dasharray:none;stroke-dashoffset:0;stroke-opacity:1;paint-order:markers stroke fill"
       id="path817-2"
       sodipodi:sides="6"
       sodipodi:cx="99.753632"
       sodipodi:cy="120.87457"
       sodipodi:r1="1.8131142"
       sodipodi:r2="0.10190753"
       sodipodi:arg1="0.50486137"
       sodipodi:arg2="1.0284601"
       inkscape:flatsided="true"
       inkscape:rounded="0"
       inkscape:randomized="0"
       d="m 101.34054,121.75155 -1.552937,0.93582 -1.586913,-0.87698 -0.03397,-1.8128 1.552942,-0.93581 1.586909,0.87698 z"
       inkscape:transform-center-y="-1.5623281e-006"
       inkscape:transform-center-x="1.2211271e-006" />
    <path
       sodipodi:type="star"
       style="opacity:0.98999999;fill:#33adff;fill-opacity:0.51627903;stroke:#33acfd;stroke-width:0.1;stroke-linecap:round;stroke-linejoin:round;stroke-miterlimit:4;stroke-dasharray:none;stroke-dashoffset:0;stroke-opacity:1;paint-order:markers stroke fill"
       id="path817-1"
       sodipodi:sides="6"
       sodipodi:cx="95.657364"
       sodipodi:cy="128.48843"
       sodipodi:r1="1.8131142"
       sodipodi:r2="0.10190753"
       sodipodi:arg1="0.50486137"
       sodipodi:arg2="1.0284601"
       inkscape:flatsided="true"
       inkscape:rounded="0"
       inkscape:randomized="0"
       d="m 97.244277,129.36541 -1.552942,0.93582 -1.586913,-0.87698 -0.03397,-1.81279 1.552942,-0.93582 1.586913,0.87698 z"
       inkscape:transform-center-x="1.2211271e-006"
       inkscape:transform-center-y="-1.5623281e-006" />
    <g
       id="g973"
       style="stroke:#ffffff;stroke-opacity:1">
      <path
         sodipodi:nodetypes="cccc"
         inkscape:connector-curvature="0"
         id="path934"
         d="m 92.772114,127.74676 2.868043,-1.70532 -0.03877,-2.67426 -2.764688,-1.52445"
         style="fill:none;fill-opacity:0.97209305;stroke:#ffffff;stroke-width:0.26499999;stroke-linecap:round;stroke-linejoin:miter;stroke-miterlimit:4;stroke-dasharray:none;stroke-opacity:1" />
      <path
         sodipodi:nodetypes="cccc"
         inkscape:connector-curvature="0"
         id="path934-4"
         d="m 102.33745,121.84663 -2.558048,1.50327 -2.145771,-1.22224 0.02584,-3.39772"
         style="fill:none;fill-opacity:0.97209305;stroke:#ffffff;stroke-width:0.26499999;stroke-linecap:round;stroke-linejoin:miter;stroke-miterlimit:4;stroke-dasharray:none;stroke-opacity:1" />
      <path
         sodipodi:nodetypes="ccc"
         inkscape:connector-curvature="0"
         id="path934-5"
         d="m 97.762911,130.24482 -0.01671,-3.11718 -2.106039,-1.0862"
         style="fill:none;fill-opacity:0.97209305;stroke:#ffffff;stroke-width:0.26499999;stroke-linecap:round;stroke-linejoin:miter;stroke-miterlimit:4;stroke-dasharray:none;stroke-opacity:1" />
      <path
         inkscape:connector-curvature="0"
         id="path957"
         d="m 95.601387,123.36718 2.032243,-1.23952"
         style="fill:none;stroke:#ffffff;stroke-width:0.26458332px;stroke-linecap:round;stroke-linejoin:miter;stroke-opacity:1" />
    </g>
    <ellipse
       style="opacity:0.98999999;fill:#853b1a;fill-opacity:0.98431373;stroke:#fc6b32;stroke-width:0.18019325;stroke-linecap:round;stroke-linejoin:round;stroke-miterlimit:4;stroke-dasharray:none;stroke-dashoffset:0;stroke-opacity:1;paint-order:markers stroke fill"
       id="path1007"
       cx="97.629921"
       cy="124.66241"
       rx="1.0627989"
       ry="1.0811635" />
    <ellipse
       style="opacity:0.98999999;fill:#853b1a;fill-opacity:0.98431373;stroke:#fc6b32;stroke-width:0.10750175;stroke-linecap:round;stroke-linejoin:round;stroke-miterlimit:4;stroke-dasharray:none;stroke-dashoffset:0;stroke-opacity:1;paint-order:markers stroke fill"
       id="path1007-9"
       cx="100.79488"
       cy="124.44261"
       rx="0.63405675"
       ry="0.64501292" />
    <ellipse
       style="opacity:0.98999999;fill:#853b1a;fill-opacity:0.98431373;stroke:#fc6b32;stroke-width:0.34052682;stroke-linecap:round;stroke-linejoin:round;stroke-miterlimit:4;stroke-dasharray:none;stroke-dashoffset:0;stroke-opacity:1;paint-order:markers stroke fill"
       id="path1007-5"
       cx="100.27042"
       cy="127.94054"
       rx="2.0084634"
       ry="2.0431685" />
  </g>
</svg>
